<svg xmlns="http://www.w3.org/2000/svg" viewBox="0 0 120 120" width="120" height="120"><defs><linearGradient id="tile" x1="0" y1="0" x2="1" y2="1">
<stop offset="0" stop-color="#12326B"/><stop offset="1" stop-color="#0A1B3D"/></linearGradient></defs><rect width="120" height="120" rx="28" fill="url(#tile)"/><rect x="0.6" y="0.6" width="118.8" height="118.8" rx="27.4" fill="none" stroke="#FFFFFF" stroke-opacity="0.10" stroke-width="1.2"/><path d="M37,32 V56 A23,23 0 0 0 83,56 V32" fill="none" stroke="#FFFFFF" stroke-width="14" stroke-linecap="round"/><path d="M67.29,48.25 L70.21,47.55 L70.21,52.45 L67.29,51.75 L66.39,53.92 L68.95,55.49 L65.49,58.95 L63.92,56.39 L61.75,57.29 L62.45,60.21 L57.55,60.21 L58.25,57.29 L56.08,56.39 L54.51,58.95 L51.05,55.49 L53.61,53.92 L52.71,51.75 L49.79,52.45 L49.79,47.55 L52.71,48.25 L53.61,46.08 L51.05,44.51 L54.51,41.05 L56.08,43.61 L58.25,42.71 L57.55,39.79 L62.45,39.79 L61.75,42.71 L63.92,43.61 L65.49,41.05 L68.95,44.51 L66.39,46.08 Z M64.41,50.00 A4.41,4.41 0 1 0 55.59,50.00 A4.41,4.41 0 1 0 64.41,50.00 Z" fill="#38BDF8" fill-rule="evenodd"/></svg>