<svg xmlns="http://www.w3.org/2000/svg" viewBox="0 34 561 153" width="561" height="153"><defs><linearGradient id="tile" x1="0" y1="0" x2="1" y2="1">
<stop offset="0" stop-color="#12326B"/><stop offset="1" stop-color="#0A1B3D"/></linearGradient></defs><g transform="translate(9.200000000000003,39.2) scale(1.18)"><rect width="120" height="120" rx="28" fill="url(#tile)"/><rect x="0.6" y="0.6" width="118.8" height="118.8" rx="27.4" fill="none" stroke="#FFFFFF" stroke-opacity="0.10" stroke-width="1.2"/><path d="M37,32 V56 A23,23 0 0 0 83,56 V32" fill="none" stroke="#FFFFFF" stroke-width="14" stroke-linecap="round"/><path d="M67.29,48.25 L70.21,47.55 L70.21,52.45 L67.29,51.75 L66.39,53.92 L68.95,55.49 L65.49,58.95 L63.92,56.39 L61.75,57.29 L62.45,60.21 L57.55,60.21 L58.25,57.29 L56.08,56.39 L54.51,58.95 L51.05,55.49 L53.61,53.92 L52.71,51.75 L49.79,52.45 L49.79,47.55 L52.71,48.25 L53.61,46.08 L51.05,44.51 L54.51,41.05 L56.08,43.61 L58.25,42.71 L57.55,39.79 L62.45,39.79 L61.75,42.71 L63.92,43.61 L65.49,41.05 L68.95,44.51 L66.39,46.08 Z M64.41,50.00 A4.41,4.41 0 1 0 55.59,50.00 A4.41,4.41 0 1 0 64.41,50.00 Z" fill="#38BDF8" fill-rule="evenodd"/></g><g transform="translate(180,102)"><g fill="#0A1B3D"><path transform="translate(0.000,0) scale(0.06200,-0.06200)" d="M393.8102102753089 -11.776176024279211Q244.8782787773683 -11.776176024279211 160.912313028398 71.0Q76.9463472794277 153.7761760242792 76.9463472794277 308.36256232386734V700H239.3311294168654V313.5523520485584Q239.3311294168654 214.24344244526338 280.39919791892476 169.88218079340993Q321.4672664209842 125.52091914155648 395.20680685020596 125.52091914155648Q469.34294385432474 125.52091914155648 510.2127140689356 169.88218079340993Q551.0824842835465 214.24344244526338 551.0824842835465 313.5523520485584V700H710.6740732711901V308.36256232386734Q710.6740732711901 153.7761760242792 626.7081075222197 71.0Q542.7421417732495 -11.776176024279211 393.8102102753089 -11.776176024279211Z"/><path transform="translate(50.356,0) scale(0.06200,-0.06200)" d="M82.9463472794277 0V700H216.60600476913072L629.9293301539128 195.55755473661392H565.2722740082376V700H725.2774766962931V0H591.6178192065901L178.29449382180792 504.44244526338605H242.9515499674832V0Z"/><path transform="translate(101.952,0) scale(0.06200,-0.06200)" d="M82.9463472794277 0V700H245.3311294168654V0Z"/><path transform="translate(123.788,0) scale(0.06200,-0.06200)" d="M251.49869932798612 0 22.068068502059397 700H189.64264036418817L388.74474311727727 80.03663559505745H304.7591588987644L513.0510513765446 700H663.0732711901148L862.5889876436158 80.03663559505745H781.7931931497941L986.4816822024712 700H1141.0902883156298L911.659657489703 0H738.308909603295L560.9319314979406 544.340342510297H607.2094081942337L425.45285063949706 0Z"/><path transform="translate(197.394,0) scale(0.06200,-0.06200)" d="M82.9463472794277 0V700H245.3311294168654V0Z"/><path transform="translate(219.230,0) scale(0.06200,-0.06200)" d="M82.9463472794277 0V700H400.79319314979404Q515.3795794493822 700 602.2676674615218 656.5948948623455Q689.1557554736614 613.1897897246911 737.9489486234554 534.8880880121396Q786.7421417732495 456.5863862995881 786.7421417732495 350Q786.7421417732495 243.81021027530892 737.9489486234554 165.31021027530892Q689.1557554736614 86.8102102753089 602.2676674615218 43.40510513765445Q515.3795794493822 0 400.79319314979404 0ZM245.3311294168654 132.71070886624756H393.20680685020596Q463.11911987860395 132.71070886624756 514.4973986559722 159.25325168003468Q565.8756774333406 185.7957944938218 594.4182202471277 234.76045957077824Q622.9607630609148 283.7251246477347 622.9607630609148 350Q622.9607630609148 417.2748753522653 594.4182202471277 465.73954042922173Q565.8756774333406 514.2042055061781 514.4973986559722 540.7467483199653Q463.11911987860395 567.2892911337524 393.20680685020596 567.2892911337524H245.3311294168654Z"/><path transform="translate(271.942,0) scale(0.06200,-0.06200)" d="M82.9463472794277 0V700H611.5183177975288V569.6688705831347H243.74474311727727V130.3311294168654H625.1217212226317V0ZM231.96856709299806 292.32592672880986V418.2774766962931H569.3115109473227V292.32592672880986Z"/></g><g transform="translate(0,32.5)" fill="#5B6B8C"><path transform="translate(0.000,0) scale(0.01850,-0.01850)" d="M94.43973553002385 0V700H201.37058313461955L507.4913288532408 189.01712551484934H450.76728809885105L752.3707999132886 700H859.3016475178842L860.4309559939302 0H736.8535660091047L735.7242575330588 506.60372859310644H761.8880338174723L506.23271190114895 79.5431389551268H447.5086711467592L188.20680685020594 506.60372859310644H218.01712551484934V0Z"/><path transform="translate(34.581,0) scale(0.01850,-0.01850)" d="M94.43973553002385 0V700H605.103403425103V590.7846303923694H223.69813570344678V109.2153696076306H618.974094949057V0ZM213.79297637112506 302.2155863862996V408.65510513765446H562.3620203771949V302.2155863862996Z"/><path transform="translate(63.889,0) scale(0.01850,-0.01850)" d="M94.43973553002385 0V700H380.51723390418385Q520.6206373292868 700 600.2671797095165 633.7888033817472Q679.9137220897463 567.5776067634945 679.9137220897463 450.8017559072187Q679.9137220897463 374.155213526989 643.9611424235854 318.7026338608281Q608.0085627574247 263.25005419466726 541.2973661391719 233.5560914805983Q474.58616952091916 203.86212876652937 381.8103186646434 203.86212876652937H166.23271190114892L224.2153696076306 262.5517017125515V0ZM551.7501625840017 0 374.5260134402775 254.12930847604596H513.948189898114L692.3016475178842 0ZM224.2153696076306 248.74138304790807 166.23271190114892 311.3361153262519H376.38792542813786Q461.9569694342077 311.3361153262519 505.48287448515066 348.1378712334706Q549.0087795360937 384.93962714068937 549.0087795360937 450.8017559072187Q549.0087795360937 517.5345761977021 505.48287448515066 553.9009863429438Q461.9569694342077 590.2673964881856 376.38792542813786 590.2673964881856H166.23271190114892L224.2153696076306 653.7328202904835Z"/><path transform="translate(94.326,0) scale(0.01850,-0.01850)" d="M418.12930847604594 -9.9051593323217Q337.61207457186214 -9.9051593323217 269.1594949057013 16.594840667678298Q200.70691523954042 43.0948406676783 150.38364404942553 91.65949490570128Q100.06037285931065 140.22414914372425 71.9310643832647 205.91811185779318Q43.801755907218734 271.61207457186214 43.801755907218734 350Q43.801755907218734 428.38792542813786 71.9310643832647 494.0818881422068Q100.06037285931065 559.7758508562757 150.81898981140256 608.3405050942987Q201.5776067634945 656.9051593323217 270.0301864296553 683.4051593323217Q338.48276609581615 709.9051593323217 419 709.9051593323217Q504.58616952091916 709.9051593323217 575.8146000433558 680.435345761977Q647.0430305657924 650.9655321916323 695.5602644699761 593.4138304790808L611.8621287665294 513.5260134402774Q573.896596574897 555.1380880121396 526.8189898114025 575.7673964881856Q479.7413830479081 596.3967049642315 424.9051593323217 596.3967049642315Q370.4913288532408 596.3967049642315 324.81888142206805 578.3018642965533Q279.1464339908953 560.2070236288749 245.45675265553868 527.1940711034034Q211.76707132018208 494.18111857793195 193.23688489052677 449.0560914805983Q174.70669846087145 403.9310643832647 174.70669846087145 350Q174.70669846087145 296.0689356167353 193.23688489052677 250.9439085194017Q211.76707132018208 205.81888142206807 245.45675265553868 172.80592889659658Q279.1464339908953 139.79297637112506 324.81888142206805 121.69813570344678Q370.4913288532408 103.60329503576848 424.9051593323217 103.60329503576848Q479.7413830479081 103.60329503576848 526.8189898114025 124.23260351181443Q573.896596574897 144.8619119878604 611.8621287665294 187.34467808367657L695.5602644699761 107.4568610448732Q647.0430305657924 50.03446780836766 575.8146000433558 20.064654238022978Q504.58616952091916 -9.9051593323217 418.12930847604594 -9.9051593323217Z"/><path transform="translate(124.523,0) scale(0.01850,-0.01850)" d="M585.8794710600476 0V700H715.6551051376545V0ZM94.43973553002385 0V700H224.2153696076306V0ZM213.43951875135485 299.7931931497941V411.07749837416H595.7846303923694V299.7931931497941Z"/><path transform="translate(156.421,0) scale(0.01850,-0.01850)" d="M-5.068935616735313 0 309.6379796228051 700H438.025688272274L753.6032950357685 0H617.5690440060698L347.16377628441364 630.663884673748H399.1119661825276L128.70669846087145 0ZM140.36202037719488 162.05181010188596 175.11196618252762 264.1378712334706H552.8362237155864L588.4568610448732 162.05181010188596Z"/><path transform="translate(187.191,0) scale(0.01850,-0.01850)" d="M94.43973553002385 0V700H201.37058313461955L640.0862779102537 160.81010188597443H586.6553219163234V700H715.6551051376545V0H608.7242575330588L170.00856275742467 539.1898981140256H223.43951875135485V0Z"/><path transform="translate(219.090,0) scale(0.01850,-0.01850)" d="M94.43973553002385 0V700H400.2586169520919Q513.7758508562757 700 599.7284305224366 656.1939627140689Q685.6810101885975 612.3879254281379 733.9396271406894 533.9525796661609Q782.1982440927812 455.51723390418385 782.1982440927812 350Q782.1982440927812 244.61207457186214 733.9396271406894 166.11207457186214Q685.6810101885975 87.61207457186212 599.7284305224366 43.80603728593106Q513.7758508562757 0 400.2586169520919 0ZM224.2153696076306 109.99122046390634H393.7413830479081Q472.4742033383915 109.99122046390634 530.0001083893344 139.8748645133319Q587.5260134402774 169.7585085627574 619.409657489703 223.80164751788422Q651.2933015391286 277.844786473011 651.2933015391286 350Q651.2933015391286 423.155213526989 619.409657489703 476.69835248211575Q587.5260134402774 530.2414914372425 530.0001083893344 560.1251354866681Q472.4742033383915 590.0087795360937 393.7413830479081 590.0087795360937H224.2153696076306Z"/><path transform="translate(251.284,0) scale(0.01850,-0.01850)" d="M94.43973553002385 0V700H224.2153696076306V0Z"/><path transform="translate(274.099,0) scale(0.01850,-0.01850)" d="M311.03446780836765 -9.9051593323217Q229.12930847604596 -9.9051593323217 154.0948406676783 13.577606763494472Q79.06037285931065 37.06037285931065 34.767288098851076 74.28452200303491L80.29308476045958 174.8878170388034Q122.4568610448732 141.53435941903317 184.3922068068502 119.68090179926295Q246.32755256882723 97.82744417949274 311.2930847604596 97.82744417949274Q366.1896813353566 97.82744417949274 400.0560914805983 109.72832213310211Q433.92250162584 121.62920008671148 449.8880338174724 142.31888142206807Q465.8535660091047 163.00856275742467 465.8535660091047 188.93962714068937Q465.8535660091047 221 443.1121829611966 240.27156947756342Q420.3707999132885 259.54313895512684 383.6940711034034 271.39659657489705Q347.0173422935183 283.25005419466726 302.5345761977021 293.0560914805983Q258.05181010188596 302.8621287665294 213.50438976804682 316.42678300455236Q168.95696943420768 329.99143724257533 132.28024062432257 351.68539995664423Q95.60351181443747 373.3793626707132 72.86212876652938 409.1379796228051Q50.120745718621286 444.89659657489705 50.120745718621286 500.89659657489705Q50.120745718621286 558.0603728593106 80.52590505094298 605.4655321916323Q110.93106438326468 652.8706915239541 173.41811185779318 681.3879254281378Q235.9051593323217 709.9051593323217 331.7154779969651 709.9051593323217Q394.87925428137873 709.9051593323217 456.9137220897464 694.0344678083677Q518.948189898114 678.1637762844136 565.2412746585736 648.0344678083677L523.844786473011 546.6897897246911Q477.0689356167353 575.3018642965533 427.2628983308042 588.7372100585303Q377.45686104487316 602.1725558205072 330.58616952091916 602.1725558205072Q277.4309559939302 602.1725558205072 243.4998916106655 589.2070236288748Q209.56882722740082 576.2414914372425 194.1032950357685 554.9225016258399Q178.63776284413615 533.6035118144374 178.63776284413615 506.8017559072187Q178.63776284413615 474.87069152395406 201.37914589204422 455.66377628441364Q224.1205289399523 436.45686104487316 260.7972577498374 425.10340342510295Q297.4739865597225 413.74994580533274 342.0214068935617 403.57321699544764Q386.5688272274008 393.39648818556253 431.051593323217 380.26717970951654Q475.5343594190332 367.1378712334706 512.2110882289182 345.87925428137873Q548.8878170388034 324.6206373292868 571.6292000867115 288.92667461521785Q594.3705831346196 253.23271190114892 594.3705831346196 198.23271190114892Q594.3705831346196 142.0689356167353 563.5300780403209 94.66377628441361Q532.689572946022 47.25861695209191 469.8318339475395 18.676728809885105Q406.974094949057 -9.9051593323217 311.03446780836765 -9.9051593323217Z"/><path transform="translate(302.649,0) scale(0.01850,-0.01850)" d="M94.43973553002385 0V700H605.103403425103V590.7846303923694H223.69813570344678V109.2153696076306H618.974094949057V0ZM213.79297637112506 302.2155863862996V408.65510513765446H562.3620203771949V302.2155863862996Z"/></g></g></svg>